# xmcd CD database file
#
# Track frame offsets:
#	150
#	19912
#	47953
#	76277
#	96626
#	126272
#	148912
#	172968
#	193385
#	220922
#	246816
#	273444
#	292914
#
# Disc length: 4182 seconds
#
# Revision: 1
# Processed by: cddbd v1.5.1PL0 Copyright (c) Steve Scherf et al.
# Submitted via: CDex 1.51
#
DISCID=cc10540d
DTITLE=Old Thumper Jazz Band - Thumping Good Jazz
DYEAR=2004
DGENRE=Jazz
TTITLE0=At the Jazzband Ball
TTITLE1=All Of Me
TTITLE2=Basin Street Blues
TTITLE3=Muskrat Ramble
TTITLE4=Bourbon Street Parade
TTITLE5=Davenport Blues
TTITLE6=China Boy
TTITLE7=The Old Rugged Cross
TTITLE8=Hindustan
TTITLE9=Royal Garden Blues
TTITLE10=Georgia On My Mind
TTITLE11=The Darktown Strutters Ball
TTITLE12=Wolverine Blues
EXTD=YEAR: 2004
EXTT0=
EXTT1=
EXTT2=
EXTT3=
EXTT4=
EXTT5=
EXTT6=
EXTT7=
EXTT8=
EXTT9=
EXTT10=
EXTT11=
EXTT12=
PLAYORDER=
